<mxfile host="Electron" agent="Mozilla/5.0 (X11; Linux x86_64) AppleWebKit/537.36 (KHTML, like Gecko) draw.io/26.0.16 Chrome/132.0.6834.196 Electron/34.2.0 Safari/537.36" version="26.0.16">
  <diagram name="Page-1" id="0XOn6kjzRxYw0xI9TYpw">
    <mxGraphModel dx="1062" dy="646" grid="1" gridSize="10" guides="1" tooltips="1" connect="1" arrows="1" fold="1" page="1" pageScale="1" pageWidth="400" pageHeight="4000" math="0" shadow="0">
      <root>
        <mxCell id="0" />
        <mxCell id="1" parent="0" />
        <mxCell id="7x98fHGfV2n_sCn_JHf2-144" style="edgeStyle=orthogonalEdgeStyle;rounded=0;orthogonalLoop=1;jettySize=auto;html=1;endArrow=none;startFill=0;" edge="1" parent="1" source="EY2tNjRsGAf-GPTE77yY-1" target="EY2tNjRsGAf-GPTE77yY-3">
          <mxGeometry relative="1" as="geometry">
            <Array as="points">
              <mxPoint x="631.27" y="222" />
              <mxPoint x="631.27" y="222" />
            </Array>
          </mxGeometry>
        </mxCell>
        <mxCell id="7x98fHGfV2n_sCn_JHf2-145" style="edgeStyle=orthogonalEdgeStyle;rounded=0;orthogonalLoop=1;jettySize=auto;html=1;endArrow=none;startFill=0;" edge="1" parent="1" source="EY2tNjRsGAf-GPTE77yY-1" target="EY2tNjRsGAf-GPTE77yY-5">
          <mxGeometry relative="1" as="geometry">
            <Array as="points">
              <mxPoint x="582.27" y="213" />
              <mxPoint x="582.27" y="213" />
            </Array>
          </mxGeometry>
        </mxCell>
        <mxCell id="7x98fHGfV2n_sCn_JHf2-146" style="edgeStyle=orthogonalEdgeStyle;rounded=0;orthogonalLoop=1;jettySize=auto;html=1;exitX=0.75;exitY=0;exitDx=0;exitDy=0;endArrow=none;startFill=0;" edge="1" parent="1" source="EY2tNjRsGAf-GPTE77yY-1" target="EY2tNjRsGAf-GPTE77yY-74">
          <mxGeometry relative="1" as="geometry">
            <Array as="points">
              <mxPoint x="624.27" y="224" />
              <mxPoint x="624.27" y="164" />
              <mxPoint x="741.27" y="164" />
            </Array>
          </mxGeometry>
        </mxCell>
        <mxCell id="7x98fHGfV2n_sCn_JHf2-147" style="edgeStyle=orthogonalEdgeStyle;rounded=0;orthogonalLoop=1;jettySize=auto;html=1;endArrow=none;startFill=0;" edge="1" parent="1" source="EY2tNjRsGAf-GPTE77yY-1" target="EY2tNjRsGAf-GPTE77yY-4">
          <mxGeometry relative="1" as="geometry">
            <Array as="points">
              <mxPoint x="620.27" y="160" />
              <mxPoint x="822.27" y="160" />
            </Array>
          </mxGeometry>
        </mxCell>
        <mxCell id="7x98fHGfV2n_sCn_JHf2-148" style="edgeStyle=orthogonalEdgeStyle;rounded=0;orthogonalLoop=1;jettySize=auto;html=1;endArrow=none;startFill=0;" edge="1" parent="1" source="EY2tNjRsGAf-GPTE77yY-1" target="EY2tNjRsGAf-GPTE77yY-67">
          <mxGeometry relative="1" as="geometry">
            <Array as="points">
              <mxPoint x="615.27" y="155" />
              <mxPoint x="899.27" y="155" />
            </Array>
          </mxGeometry>
        </mxCell>
        <mxCell id="7x98fHGfV2n_sCn_JHf2-149" style="edgeStyle=orthogonalEdgeStyle;rounded=0;orthogonalLoop=1;jettySize=auto;html=1;endArrow=none;startFill=0;" edge="1" parent="1" source="EY2tNjRsGAf-GPTE77yY-1" target="7x98fHGfV2n_sCn_JHf2-92">
          <mxGeometry relative="1" as="geometry">
            <Array as="points">
              <mxPoint x="590.27" y="170" />
              <mxPoint x="451.27" y="170" />
            </Array>
          </mxGeometry>
        </mxCell>
        <mxCell id="7x98fHGfV2n_sCn_JHf2-150" style="edgeStyle=orthogonalEdgeStyle;rounded=0;orthogonalLoop=1;jettySize=auto;html=1;endArrow=none;startFill=0;" edge="1" parent="1" source="EY2tNjRsGAf-GPTE77yY-1" target="EY2tNjRsGAf-GPTE77yY-64">
          <mxGeometry relative="1" as="geometry">
            <Array as="points">
              <mxPoint x="595.27" y="165" />
              <mxPoint x="367.27" y="165" />
            </Array>
          </mxGeometry>
        </mxCell>
        <mxCell id="7x98fHGfV2n_sCn_JHf2-151" style="edgeStyle=orthogonalEdgeStyle;rounded=0;orthogonalLoop=1;jettySize=auto;html=1;endArrow=none;startFill=0;" edge="1" parent="1" source="EY2tNjRsGAf-GPTE77yY-1" target="EY2tNjRsGAf-GPTE77yY-213">
          <mxGeometry relative="1" as="geometry">
            <Array as="points">
              <mxPoint x="600.27" y="159" />
              <mxPoint x="286.27" y="159" />
            </Array>
          </mxGeometry>
        </mxCell>
        <mxCell id="7x98fHGfV2n_sCn_JHf2-152" style="edgeStyle=orthogonalEdgeStyle;rounded=0;orthogonalLoop=1;jettySize=auto;html=1;endArrow=none;startFill=0;" edge="1" parent="1" source="EY2tNjRsGAf-GPTE77yY-1" target="EY2tNjRsGAf-GPTE77yY-231">
          <mxGeometry relative="1" as="geometry">
            <Array as="points">
              <mxPoint x="605.27" y="130" />
            </Array>
          </mxGeometry>
        </mxCell>
        <mxCell id="7x98fHGfV2n_sCn_JHf2-153" style="edgeStyle=orthogonalEdgeStyle;rounded=0;orthogonalLoop=1;jettySize=auto;html=1;endArrow=none;startFill=0;" edge="1" parent="1" source="EY2tNjRsGAf-GPTE77yY-1" target="EY2tNjRsGAf-GPTE77yY-2">
          <mxGeometry relative="1" as="geometry">
            <Array as="points">
              <mxPoint x="610.27" y="130" />
            </Array>
          </mxGeometry>
        </mxCell>
        <mxCell id="7x98fHGfV2n_sCn_JHf2-161" style="edgeStyle=orthogonalEdgeStyle;rounded=0;orthogonalLoop=1;jettySize=auto;html=1;" edge="1" parent="1" source="EY2tNjRsGAf-GPTE77yY-1" target="7x98fHGfV2n_sCn_JHf2-137">
          <mxGeometry relative="1" as="geometry" />
        </mxCell>
        <mxCell id="7x98fHGfV2n_sCn_JHf2-162" style="edgeStyle=orthogonalEdgeStyle;rounded=0;orthogonalLoop=1;jettySize=auto;html=1;" edge="1" parent="1" source="EY2tNjRsGAf-GPTE77yY-1" target="7x98fHGfV2n_sCn_JHf2-134">
          <mxGeometry relative="1" as="geometry" />
        </mxCell>
        <mxCell id="7x98fHGfV2n_sCn_JHf2-163" style="edgeStyle=orthogonalEdgeStyle;rounded=0;orthogonalLoop=1;jettySize=auto;html=1;" edge="1" parent="1" source="EY2tNjRsGAf-GPTE77yY-1" target="7x98fHGfV2n_sCn_JHf2-122">
          <mxGeometry relative="1" as="geometry">
            <Array as="points">
              <mxPoint x="565" y="260" />
              <mxPoint x="327" y="260" />
            </Array>
          </mxGeometry>
        </mxCell>
        <mxCell id="7x98fHGfV2n_sCn_JHf2-164" style="edgeStyle=orthogonalEdgeStyle;rounded=0;orthogonalLoop=1;jettySize=auto;html=1;exitX=0.75;exitY=1;exitDx=0;exitDy=0;" edge="1" parent="1" source="EY2tNjRsGAf-GPTE77yY-1" target="7x98fHGfV2n_sCn_JHf2-132">
          <mxGeometry relative="1" as="geometry">
            <Array as="points">
              <mxPoint x="650" y="254" />
              <mxPoint x="650" y="260" />
              <mxPoint x="889" y="260" />
            </Array>
          </mxGeometry>
        </mxCell>
        <mxCell id="7x98fHGfV2n_sCn_JHf2-165" style="edgeStyle=orthogonalEdgeStyle;rounded=0;orthogonalLoop=1;jettySize=auto;html=1;" edge="1" parent="1" source="EY2tNjRsGAf-GPTE77yY-1" target="7x98fHGfV2n_sCn_JHf2-119">
          <mxGeometry relative="1" as="geometry">
            <Array as="points">
              <mxPoint x="574" y="270" />
              <mxPoint x="477" y="270" />
            </Array>
          </mxGeometry>
        </mxCell>
        <mxCell id="7x98fHGfV2n_sCn_JHf2-166" style="edgeStyle=orthogonalEdgeStyle;rounded=0;orthogonalLoop=1;jettySize=auto;html=1;exitX=0.75;exitY=1;exitDx=0;exitDy=0;" edge="1" parent="1" source="EY2tNjRsGAf-GPTE77yY-1" target="7x98fHGfV2n_sCn_JHf2-128">
          <mxGeometry relative="1" as="geometry">
            <Array as="points">
              <mxPoint x="631" y="270" />
              <mxPoint x="753" y="270" />
            </Array>
          </mxGeometry>
        </mxCell>
        <mxCell id="7x98fHGfV2n_sCn_JHf2-167" style="edgeStyle=orthogonalEdgeStyle;rounded=0;orthogonalLoop=1;jettySize=auto;html=1;exitX=0.5;exitY=1;exitDx=0;exitDy=0;" edge="1" parent="1" source="EY2tNjRsGAf-GPTE77yY-1" target="7x98fHGfV2n_sCn_JHf2-126">
          <mxGeometry relative="1" as="geometry" />
        </mxCell>
        <mxCell id="EY2tNjRsGAf-GPTE77yY-1" value="Person" style="rounded=0;whiteSpace=wrap;html=1;" parent="1" vertex="1">
          <mxGeometry x="557.27" y="224" width="98" height="30" as="geometry" />
        </mxCell>
        <mxCell id="7x98fHGfV2n_sCn_JHf2-155" style="edgeStyle=orthogonalEdgeStyle;rounded=0;orthogonalLoop=1;jettySize=auto;html=1;endArrow=none;startFill=0;" edge="1" parent="1" source="EY2tNjRsGAf-GPTE77yY-2" target="EY2tNjRsGAf-GPTE77yY-15">
          <mxGeometry relative="1" as="geometry" />
        </mxCell>
        <mxCell id="7x98fHGfV2n_sCn_JHf2-159" style="edgeStyle=orthogonalEdgeStyle;rounded=0;orthogonalLoop=1;jettySize=auto;html=1;endArrow=none;startFill=0;" edge="1" parent="1" source="EY2tNjRsGAf-GPTE77yY-2" target="EY2tNjRsGAf-GPTE77yY-16">
          <mxGeometry relative="1" as="geometry">
            <Array as="points">
              <mxPoint x="662.27" y="94" />
              <mxPoint x="840.27" y="94" />
            </Array>
          </mxGeometry>
        </mxCell>
        <mxCell id="EY2tNjRsGAf-GPTE77yY-2" value="name" style="ellipse;whiteSpace=wrap;html=1;" parent="1" vertex="1">
          <mxGeometry x="627.27" y="115" width="70" height="30" as="geometry" />
        </mxCell>
        <mxCell id="EY2tNjRsGAf-GPTE77yY-4" value="email" style="ellipse;whiteSpace=wrap;html=1;" parent="1" vertex="1">
          <mxGeometry x="792.52" y="174" width="60" height="30" as="geometry" />
        </mxCell>
        <mxCell id="EY2tNjRsGAf-GPTE77yY-5" value="username" style="ellipse;whiteSpace=wrap;html=1;" parent="1" vertex="1">
          <mxGeometry x="507.27" y="174" width="80" height="30" as="geometry" />
        </mxCell>
        <mxCell id="EY2tNjRsGAf-GPTE77yY-15" value="FName" style="ellipse;whiteSpace=wrap;html=1;" parent="1" vertex="1">
          <mxGeometry x="717.52" y="114" width="70" height="30" as="geometry" />
        </mxCell>
        <mxCell id="EY2tNjRsGAf-GPTE77yY-16" value="LName" style="ellipse;whiteSpace=wrap;html=1;" parent="1" vertex="1">
          <mxGeometry x="805.27" y="115" width="70" height="30" as="geometry" />
        </mxCell>
        <mxCell id="EY2tNjRsGAf-GPTE77yY-3" value="PID" style="ellipse;whiteSpace=wrap;html=1;" parent="1" vertex="1">
          <mxGeometry x="627.27" y="174" width="60" height="30" as="geometry" />
        </mxCell>
        <mxCell id="EY2tNjRsGAf-GPTE77yY-24" value="Numb" style="ellipse;whiteSpace=wrap;html=1;" parent="1" vertex="1">
          <mxGeometry x="256" y="174" width="60" height="30" as="geometry" />
        </mxCell>
        <mxCell id="EY2tNjRsGAf-GPTE77yY-28" value="" style="endArrow=none;html=1;rounded=0;entryX=0.143;entryY=0.75;entryDx=0;entryDy=0;entryPerimeter=0;" parent="1" edge="1">
          <mxGeometry width="50" height="50" relative="1" as="geometry">
            <mxPoint x="669.77" y="198" as="sourcePoint" />
            <mxPoint x="645.77" y="198" as="targetPoint" />
          </mxGeometry>
        </mxCell>
        <mxCell id="EY2tNjRsGAf-GPTE77yY-37" value="Log" style="rounded=0;whiteSpace=wrap;html=1;" parent="1" vertex="1">
          <mxGeometry x="168" y="1791.5" width="100" height="30" as="geometry" />
        </mxCell>
        <mxCell id="EY2tNjRsGAf-GPTE77yY-41" value="timestamp" style="ellipse;whiteSpace=wrap;html=1;" parent="1" vertex="1">
          <mxGeometry x="167.5" y="1650" width="77.5" height="30" as="geometry" />
        </mxCell>
        <mxCell id="EY2tNjRsGAf-GPTE77yY-43" value="ip" style="ellipse;whiteSpace=wrap;html=1;" parent="1" vertex="1">
          <mxGeometry x="181" y="1720.5" width="52" height="23" as="geometry" />
        </mxCell>
        <mxCell id="EY2tNjRsGAf-GPTE77yY-48" value="device" style="ellipse;whiteSpace=wrap;html=1;" parent="1" vertex="1">
          <mxGeometry x="177.5" y="1686" width="54.25" height="28" as="geometry" />
        </mxCell>
        <mxCell id="EY2tNjRsGAf-GPTE77yY-49" style="edgeStyle=orthogonalEdgeStyle;rounded=0;orthogonalLoop=1;jettySize=auto;html=1;endArrow=none;startFill=0;exitX=1.011;exitY=0.539;exitDx=0;exitDy=0;exitPerimeter=0;" parent="1" source="EY2tNjRsGAf-GPTE77yY-43" edge="1">
          <mxGeometry relative="1" as="geometry">
            <mxPoint x="257" y="1791.5" as="targetPoint" />
            <Array as="points">
              <mxPoint x="257.5" y="1733" />
            </Array>
            <mxPoint x="229.50000000000023" y="1721" as="sourcePoint" />
          </mxGeometry>
        </mxCell>
        <mxCell id="EY2tNjRsGAf-GPTE77yY-50" style="edgeStyle=orthogonalEdgeStyle;rounded=0;orthogonalLoop=1;jettySize=auto;html=1;exitX=1;exitY=0.5;exitDx=0;exitDy=0;entryX=0.808;entryY=-0.007;entryDx=0;entryDy=0;entryPerimeter=0;endArrow=none;startFill=0;" parent="1" source="EY2tNjRsGAf-GPTE77yY-48" edge="1">
          <mxGeometry relative="1" as="geometry">
            <Array as="points">
              <mxPoint x="262.5" y="1700" />
            </Array>
            <mxPoint x="246.689999999998" y="1678.71" as="sourcePoint" />
            <mxPoint x="262.49" y="1791.5" as="targetPoint" />
          </mxGeometry>
        </mxCell>
        <mxCell id="EY2tNjRsGAf-GPTE77yY-51" style="edgeStyle=orthogonalEdgeStyle;rounded=0;orthogonalLoop=1;jettySize=auto;html=1;entryX=0.896;entryY=0.014;entryDx=0;entryDy=0;entryPerimeter=0;endArrow=none;startFill=0;exitX=1;exitY=0.5;exitDx=0;exitDy=0;" parent="1" source="EY2tNjRsGAf-GPTE77yY-41" edge="1">
          <mxGeometry relative="1" as="geometry">
            <Array as="points">
              <mxPoint x="245.5" y="1664" />
              <mxPoint x="268.5" y="1664" />
            </Array>
            <mxPoint x="243.39999779803577" y="1633.0742528735632" as="sourcePoint" />
            <mxPoint x="267.9999999999999" y="1791.5" as="targetPoint" />
          </mxGeometry>
        </mxCell>
        <mxCell id="EY2tNjRsGAf-GPTE77yY-64" value="gender" style="ellipse;whiteSpace=wrap;html=1;" parent="1" vertex="1">
          <mxGeometry x="337.27" y="174" width="60" height="30" as="geometry" />
        </mxCell>
        <mxCell id="EY2tNjRsGAf-GPTE77yY-67" value="age" style="ellipse;whiteSpace=wrap;html=1;dashed=1;" parent="1" vertex="1">
          <mxGeometry x="869.27" y="174" width="60" height="30" as="geometry" />
        </mxCell>
        <mxCell id="EY2tNjRsGAf-GPTE77yY-74" value="timestamp" style="ellipse;whiteSpace=wrap;html=1;" parent="1" vertex="1">
          <mxGeometry x="707.27" y="174" width="68" height="30" as="geometry" />
        </mxCell>
        <mxCell id="EY2tNjRsGAf-GPTE77yY-213" value="" style="ellipse;whiteSpace=wrap;html=1;fillColor=none;" parent="1" vertex="1">
          <mxGeometry x="260" y="177" width="51" height="25" as="geometry" />
        </mxCell>
        <mxCell id="7x98fHGfV2n_sCn_JHf2-154" style="edgeStyle=orthogonalEdgeStyle;rounded=0;orthogonalLoop=1;jettySize=auto;html=1;" edge="1" parent="1" source="EY2tNjRsGAf-GPTE77yY-231" target="EY2tNjRsGAf-GPTE77yY-234">
          <mxGeometry relative="1" as="geometry">
            <Array as="points" />
          </mxGeometry>
        </mxCell>
        <mxCell id="7x98fHGfV2n_sCn_JHf2-156" style="edgeStyle=orthogonalEdgeStyle;rounded=0;orthogonalLoop=1;jettySize=auto;html=1;endArrow=none;startFill=0;" edge="1" parent="1" source="EY2tNjRsGAf-GPTE77yY-231" target="EY2tNjRsGAf-GPTE77yY-236">
          <mxGeometry relative="1" as="geometry">
            <Array as="points">
              <mxPoint x="537.27" y="104" />
              <mxPoint x="395.27" y="104" />
            </Array>
          </mxGeometry>
        </mxCell>
        <mxCell id="7x98fHGfV2n_sCn_JHf2-157" style="edgeStyle=orthogonalEdgeStyle;rounded=0;orthogonalLoop=1;jettySize=auto;html=1;endArrow=none;startFill=0;" edge="1" parent="1" source="EY2tNjRsGAf-GPTE77yY-231" target="EY2tNjRsGAf-GPTE77yY-235">
          <mxGeometry relative="1" as="geometry">
            <Array as="points">
              <mxPoint x="545.27" y="98" />
              <mxPoint x="347.27" y="98" />
            </Array>
          </mxGeometry>
        </mxCell>
        <mxCell id="7x98fHGfV2n_sCn_JHf2-158" style="edgeStyle=orthogonalEdgeStyle;rounded=0;orthogonalLoop=1;jettySize=auto;html=1;endArrow=none;startFill=0;" edge="1" parent="1" source="EY2tNjRsGAf-GPTE77yY-231" target="EY2tNjRsGAf-GPTE77yY-241">
          <mxGeometry relative="1" as="geometry">
            <mxPoint x="552.27" y="74" as="targetPoint" />
            <Array as="points">
              <mxPoint x="552.27" y="90" />
              <mxPoint x="262.27" y="90" />
            </Array>
          </mxGeometry>
        </mxCell>
        <mxCell id="7x98fHGfV2n_sCn_JHf2-160" style="edgeStyle=orthogonalEdgeStyle;rounded=0;orthogonalLoop=1;jettySize=auto;html=1;" edge="1" parent="1" source="EY2tNjRsGAf-GPTE77yY-231" target="EY2tNjRsGAf-GPTE77yY-234">
          <mxGeometry relative="1" as="geometry" />
        </mxCell>
        <mxCell id="EY2tNjRsGAf-GPTE77yY-231" value="address" style="ellipse;whiteSpace=wrap;html=1;" parent="1" vertex="1">
          <mxGeometry x="517.27" y="115" width="70" height="30" as="geometry" />
        </mxCell>
        <mxCell id="EY2tNjRsGAf-GPTE77yY-234" value="steet" style="ellipse;whiteSpace=wrap;html=1;" parent="1" vertex="1">
          <mxGeometry x="437.03" y="119.37" width="70" height="21.25" as="geometry" />
        </mxCell>
        <mxCell id="EY2tNjRsGAf-GPTE77yY-235" value="zip" style="ellipse;whiteSpace=wrap;html=1;" parent="1" vertex="1">
          <mxGeometry x="297" y="120.12" width="60" height="20.5" as="geometry" />
        </mxCell>
        <mxCell id="EY2tNjRsGAf-GPTE77yY-236" value="city" style="ellipse;whiteSpace=wrap;html=1;" parent="1" vertex="1">
          <mxGeometry x="367" y="117.5" width="56.5" height="25" as="geometry" />
        </mxCell>
        <mxCell id="EY2tNjRsGAf-GPTE77yY-241" value="&lt;label for=&quot;country&quot;&gt;region&lt;/label&gt;" style="ellipse;whiteSpace=wrap;html=1;" parent="1" vertex="1">
          <mxGeometry x="237" y="115" width="50" height="30" as="geometry" />
        </mxCell>
        <mxCell id="7x98fHGfV2n_sCn_JHf2-3" style="edgeStyle=orthogonalEdgeStyle;rounded=0;orthogonalLoop=1;jettySize=auto;html=1;endArrow=none;startFill=0;" edge="1" parent="1" source="RrSn-xgYiSu3ErkupoAv-3" target="7x98fHGfV2n_sCn_JHf2-1">
          <mxGeometry relative="1" as="geometry">
            <Array as="points">
              <mxPoint x="168" y="564" />
              <mxPoint x="168" y="564" />
            </Array>
          </mxGeometry>
        </mxCell>
        <mxCell id="RrSn-xgYiSu3ErkupoAv-3" value="PID" style="ellipse;whiteSpace=wrap;html=1;" parent="1" vertex="1">
          <mxGeometry x="165" y="574" width="63" height="28" as="geometry" />
        </mxCell>
        <mxCell id="RrSn-xgYiSu3ErkupoAv-10" value="status" style="ellipse;whiteSpace=wrap;html=1;" parent="1" vertex="1">
          <mxGeometry x="163" y="664" width="65" height="28" as="geometry" />
        </mxCell>
        <mxCell id="RrSn-xgYiSu3ErkupoAv-18" value="timestamp" style="ellipse;whiteSpace=wrap;html=1;" parent="1" vertex="1">
          <mxGeometry x="160" y="708.5" width="68" height="28" as="geometry" />
        </mxCell>
        <mxCell id="RrSn-xgYiSu3ErkupoAv-21" style="edgeStyle=orthogonalEdgeStyle;rounded=0;orthogonalLoop=1;jettySize=auto;html=1;endArrow=none;startFill=0;" parent="1" edge="1">
          <mxGeometry relative="1" as="geometry">
            <mxPoint x="250.58000000000004" y="1791.5" as="targetPoint" />
            <Array as="points">
              <mxPoint x="247.5" y="1764" />
              <mxPoint x="247.5" y="1792" />
            </Array>
            <mxPoint x="237.5" y="1764" as="sourcePoint" />
          </mxGeometry>
        </mxCell>
        <mxCell id="RrSn-xgYiSu3ErkupoAv-35" value="logID" style="ellipse;whiteSpace=wrap;html=1;" parent="1" vertex="1">
          <mxGeometry x="190.5" y="1754" width="47" height="23" as="geometry" />
        </mxCell>
        <mxCell id="EY2tNjRsGAf-GPTE77yY-46" value="" style="endArrow=none;html=1;rounded=0;exitX=0.714;exitY=0.75;exitDx=0;exitDy=0;exitPerimeter=0;entryX=0.286;entryY=0.75;entryDx=0;entryDy=0;entryPerimeter=0;" parent="1" edge="1">
          <mxGeometry width="50" height="50" relative="1" as="geometry">
            <mxPoint x="230.5" y="1771.5" as="sourcePoint" />
            <mxPoint x="200.5" y="1771.5" as="targetPoint" />
          </mxGeometry>
        </mxCell>
        <mxCell id="7x98fHGfV2n_sCn_JHf2-5" style="edgeStyle=orthogonalEdgeStyle;rounded=0;orthogonalLoop=1;jettySize=auto;html=1;endArrow=none;startFill=0;" edge="1" parent="1" source="7x98fHGfV2n_sCn_JHf2-1" target="7x98fHGfV2n_sCn_JHf2-2">
          <mxGeometry relative="1" as="geometry">
            <Array as="points">
              <mxPoint x="158" y="633" />
            </Array>
          </mxGeometry>
        </mxCell>
        <mxCell id="7x98fHGfV2n_sCn_JHf2-6" style="edgeStyle=orthogonalEdgeStyle;rounded=0;orthogonalLoop=1;jettySize=auto;html=1;endArrow=none;startFill=0;" edge="1" parent="1" source="7x98fHGfV2n_sCn_JHf2-1" target="RrSn-xgYiSu3ErkupoAv-10">
          <mxGeometry relative="1" as="geometry">
            <Array as="points">
              <mxPoint x="148" y="678" />
            </Array>
          </mxGeometry>
        </mxCell>
        <mxCell id="7x98fHGfV2n_sCn_JHf2-7" style="edgeStyle=orthogonalEdgeStyle;rounded=0;orthogonalLoop=1;jettySize=auto;html=1;endArrow=none;startFill=0;" edge="1" parent="1" source="7x98fHGfV2n_sCn_JHf2-1" target="RrSn-xgYiSu3ErkupoAv-18">
          <mxGeometry relative="1" as="geometry">
            <Array as="points">
              <mxPoint x="138" y="723" />
            </Array>
          </mxGeometry>
        </mxCell>
        <mxCell id="7x98fHGfV2n_sCn_JHf2-1" value="Friend" style="rounded=0;whiteSpace=wrap;html=1;" vertex="1" parent="1">
          <mxGeometry x="130" y="524" width="98" height="30" as="geometry" />
        </mxCell>
        <mxCell id="7x98fHGfV2n_sCn_JHf2-2" value="FID" style="ellipse;whiteSpace=wrap;html=1;" vertex="1" parent="1">
          <mxGeometry x="165" y="618.97" width="63" height="28" as="geometry" />
        </mxCell>
        <mxCell id="7x98fHGfV2n_sCn_JHf2-17" style="edgeStyle=orthogonalEdgeStyle;rounded=0;orthogonalLoop=1;jettySize=auto;html=1;exitX=0.25;exitY=1;exitDx=0;exitDy=0;endArrow=none;startFill=0;" edge="1" parent="1" source="7x98fHGfV2n_sCn_JHf2-8" target="7x98fHGfV2n_sCn_JHf2-10">
          <mxGeometry relative="1" as="geometry">
            <Array as="points">
              <mxPoint x="302.27" y="654" />
            </Array>
          </mxGeometry>
        </mxCell>
        <mxCell id="7x98fHGfV2n_sCn_JHf2-18" style="edgeStyle=orthogonalEdgeStyle;rounded=0;orthogonalLoop=1;jettySize=auto;html=1;endArrow=none;startFill=0;" edge="1" parent="1" source="7x98fHGfV2n_sCn_JHf2-8" target="7x98fHGfV2n_sCn_JHf2-11">
          <mxGeometry relative="1" as="geometry">
            <Array as="points">
              <mxPoint x="296.27" y="688" />
            </Array>
          </mxGeometry>
        </mxCell>
        <mxCell id="7x98fHGfV2n_sCn_JHf2-19" style="edgeStyle=orthogonalEdgeStyle;rounded=0;orthogonalLoop=1;jettySize=auto;html=1;endArrow=none;startFill=0;" edge="1" parent="1" source="7x98fHGfV2n_sCn_JHf2-8" target="7x98fHGfV2n_sCn_JHf2-12">
          <mxGeometry relative="1" as="geometry">
            <Array as="points">
              <mxPoint x="290.27" y="725" />
            </Array>
          </mxGeometry>
        </mxCell>
        <mxCell id="7x98fHGfV2n_sCn_JHf2-21" style="edgeStyle=orthogonalEdgeStyle;rounded=0;orthogonalLoop=1;jettySize=auto;html=1;endArrow=none;startFill=0;" edge="1" parent="1" source="7x98fHGfV2n_sCn_JHf2-8" target="7x98fHGfV2n_sCn_JHf2-13">
          <mxGeometry relative="1" as="geometry">
            <Array as="points">
              <mxPoint x="284.27" y="764" />
            </Array>
          </mxGeometry>
        </mxCell>
        <mxCell id="7x98fHGfV2n_sCn_JHf2-22" style="edgeStyle=orthogonalEdgeStyle;rounded=0;orthogonalLoop=1;jettySize=auto;html=1;endArrow=none;startFill=0;" edge="1" parent="1" source="7x98fHGfV2n_sCn_JHf2-8" target="7x98fHGfV2n_sCn_JHf2-14">
          <mxGeometry relative="1" as="geometry">
            <Array as="points">
              <mxPoint x="278.27" y="808" />
            </Array>
          </mxGeometry>
        </mxCell>
        <mxCell id="7x98fHGfV2n_sCn_JHf2-49" style="edgeStyle=orthogonalEdgeStyle;rounded=0;orthogonalLoop=1;jettySize=auto;html=1;exitX=0.5;exitY=1;exitDx=0;exitDy=0;" edge="1" parent="1" source="7x98fHGfV2n_sCn_JHf2-8" target="7x98fHGfV2n_sCn_JHf2-48">
          <mxGeometry relative="1" as="geometry" />
        </mxCell>
        <mxCell id="7x98fHGfV2n_sCn_JHf2-8" value="Media" style="rounded=0;whiteSpace=wrap;html=1;" vertex="1" parent="1">
          <mxGeometry x="278" y="524" width="98" height="30" as="geometry" />
        </mxCell>
        <mxCell id="7x98fHGfV2n_sCn_JHf2-16" style="edgeStyle=orthogonalEdgeStyle;rounded=0;orthogonalLoop=1;jettySize=auto;html=1;endArrow=none;startFill=0;" edge="1" parent="1" source="7x98fHGfV2n_sCn_JHf2-9" target="7x98fHGfV2n_sCn_JHf2-8">
          <mxGeometry relative="1" as="geometry">
            <Array as="points">
              <mxPoint x="310.27" y="617" />
            </Array>
          </mxGeometry>
        </mxCell>
        <mxCell id="7x98fHGfV2n_sCn_JHf2-9" value="MID" style="ellipse;whiteSpace=wrap;html=1;" vertex="1" parent="1">
          <mxGeometry x="313" y="602.97" width="63" height="28" as="geometry" />
        </mxCell>
        <mxCell id="7x98fHGfV2n_sCn_JHf2-10" value="name" style="ellipse;whiteSpace=wrap;html=1;" vertex="1" parent="1">
          <mxGeometry x="313" y="639" width="63" height="28" as="geometry" />
        </mxCell>
        <mxCell id="7x98fHGfV2n_sCn_JHf2-11" value="info" style="ellipse;whiteSpace=wrap;html=1;" vertex="1" parent="1">
          <mxGeometry x="313" y="674" width="63" height="28" as="geometry" />
        </mxCell>
        <mxCell id="7x98fHGfV2n_sCn_JHf2-12" value="size" style="ellipse;whiteSpace=wrap;html=1;" vertex="1" parent="1">
          <mxGeometry x="313" y="711" width="63" height="28" as="geometry" />
        </mxCell>
        <mxCell id="7x98fHGfV2n_sCn_JHf2-13" value="type" style="ellipse;whiteSpace=wrap;html=1;" vertex="1" parent="1">
          <mxGeometry x="313" y="748" width="63" height="28" as="geometry" />
        </mxCell>
        <mxCell id="7x98fHGfV2n_sCn_JHf2-14" value="timestamp" style="ellipse;whiteSpace=wrap;html=1;" vertex="1" parent="1">
          <mxGeometry x="310.5" y="794" width="68" height="28" as="geometry" />
        </mxCell>
        <mxCell id="7x98fHGfV2n_sCn_JHf2-23" style="edgeStyle=orthogonalEdgeStyle;rounded=0;orthogonalLoop=1;jettySize=auto;html=1;exitX=0.25;exitY=1;exitDx=0;exitDy=0;endArrow=none;startFill=0;" edge="1" parent="1" source="7x98fHGfV2n_sCn_JHf2-28" target="7x98fHGfV2n_sCn_JHf2-31">
          <mxGeometry relative="1" as="geometry">
            <Array as="points">
              <mxPoint x="453.03" y="616" />
            </Array>
          </mxGeometry>
        </mxCell>
        <mxCell id="7x98fHGfV2n_sCn_JHf2-24" style="edgeStyle=orthogonalEdgeStyle;rounded=0;orthogonalLoop=1;jettySize=auto;html=1;endArrow=none;startFill=0;" edge="1" parent="1" source="7x98fHGfV2n_sCn_JHf2-28" target="7x98fHGfV2n_sCn_JHf2-32">
          <mxGeometry relative="1" as="geometry">
            <Array as="points">
              <mxPoint x="446.03" y="650" />
            </Array>
          </mxGeometry>
        </mxCell>
        <mxCell id="7x98fHGfV2n_sCn_JHf2-25" style="edgeStyle=orthogonalEdgeStyle;rounded=0;orthogonalLoop=1;jettySize=auto;html=1;endArrow=none;startFill=0;" edge="1" parent="1" source="7x98fHGfV2n_sCn_JHf2-28" target="7x98fHGfV2n_sCn_JHf2-33">
          <mxGeometry relative="1" as="geometry">
            <Array as="points">
              <mxPoint x="438.03" y="686" />
            </Array>
          </mxGeometry>
        </mxCell>
        <mxCell id="7x98fHGfV2n_sCn_JHf2-27" style="edgeStyle=orthogonalEdgeStyle;rounded=0;orthogonalLoop=1;jettySize=auto;html=1;endArrow=none;startFill=0;" edge="1" parent="1" source="7x98fHGfV2n_sCn_JHf2-28" target="7x98fHGfV2n_sCn_JHf2-35">
          <mxGeometry relative="1" as="geometry">
            <Array as="points">
              <mxPoint x="428.03" y="724" />
            </Array>
          </mxGeometry>
        </mxCell>
        <mxCell id="7x98fHGfV2n_sCn_JHf2-28" value="Post" style="rounded=0;whiteSpace=wrap;html=1;" vertex="1" parent="1">
          <mxGeometry x="428.03" y="524" width="98" height="30" as="geometry" />
        </mxCell>
        <mxCell id="7x98fHGfV2n_sCn_JHf2-29" style="edgeStyle=orthogonalEdgeStyle;rounded=0;orthogonalLoop=1;jettySize=auto;html=1;endArrow=none;startFill=0;" edge="1" parent="1" source="7x98fHGfV2n_sCn_JHf2-30" target="7x98fHGfV2n_sCn_JHf2-28">
          <mxGeometry relative="1" as="geometry">
            <Array as="points">
              <mxPoint x="465.03" y="561" />
              <mxPoint x="465.03" y="561" />
            </Array>
          </mxGeometry>
        </mxCell>
        <mxCell id="7x98fHGfV2n_sCn_JHf2-30" value="PID" style="ellipse;whiteSpace=wrap;html=1;" vertex="1" parent="1">
          <mxGeometry x="463.03" y="564.97" width="63" height="28" as="geometry" />
        </mxCell>
        <mxCell id="7x98fHGfV2n_sCn_JHf2-31" value="POID" style="ellipse;whiteSpace=wrap;html=1;" vertex="1" parent="1">
          <mxGeometry x="463.03" y="601" width="63" height="28" as="geometry" />
        </mxCell>
        <mxCell id="7x98fHGfV2n_sCn_JHf2-32" value="title" style="ellipse;whiteSpace=wrap;html=1;" vertex="1" parent="1">
          <mxGeometry x="463.03" y="636" width="63" height="28" as="geometry" />
        </mxCell>
        <mxCell id="7x98fHGfV2n_sCn_JHf2-33" value="desc" style="ellipse;whiteSpace=wrap;html=1;" vertex="1" parent="1">
          <mxGeometry x="463.03" y="673" width="63" height="28" as="geometry" />
        </mxCell>
        <mxCell id="7x98fHGfV2n_sCn_JHf2-35" value="timestamp" style="ellipse;whiteSpace=wrap;html=1;" vertex="1" parent="1">
          <mxGeometry x="460.53" y="707" width="68" height="28" as="geometry" />
        </mxCell>
        <mxCell id="7x98fHGfV2n_sCn_JHf2-36" value="" style="endArrow=none;html=1;rounded=0;" edge="1" parent="1">
          <mxGeometry width="50" height="50" relative="1" as="geometry">
            <mxPoint x="328.5" y="624" as="sourcePoint" />
            <mxPoint x="359" y="625" as="targetPoint" />
          </mxGeometry>
        </mxCell>
        <mxCell id="7x98fHGfV2n_sCn_JHf2-37" style="edgeStyle=orthogonalEdgeStyle;rounded=0;orthogonalLoop=1;jettySize=auto;html=1;exitX=0.25;exitY=1;exitDx=0;exitDy=0;endArrow=none;startFill=0;" edge="1" parent="1" source="7x98fHGfV2n_sCn_JHf2-41" target="7x98fHGfV2n_sCn_JHf2-44">
          <mxGeometry relative="1" as="geometry">
            <Array as="points">
              <mxPoint x="584.77" y="554" />
              <mxPoint x="584.77" y="654" />
            </Array>
          </mxGeometry>
        </mxCell>
        <mxCell id="7x98fHGfV2n_sCn_JHf2-38" style="edgeStyle=orthogonalEdgeStyle;rounded=0;orthogonalLoop=1;jettySize=auto;html=1;endArrow=none;startFill=0;" edge="1" parent="1" target="7x98fHGfV2n_sCn_JHf2-45">
          <mxGeometry relative="1" as="geometry">
            <Array as="points">
              <mxPoint x="576.77" y="694" />
            </Array>
            <mxPoint x="576.77" y="554" as="sourcePoint" />
            <mxPoint x="601.0017127548508" y="694" as="targetPoint" />
          </mxGeometry>
        </mxCell>
        <mxCell id="7x98fHGfV2n_sCn_JHf2-40" style="edgeStyle=orthogonalEdgeStyle;rounded=0;orthogonalLoop=1;jettySize=auto;html=1;endArrow=none;startFill=0;" edge="1" parent="1" source="7x98fHGfV2n_sCn_JHf2-41" target="7x98fHGfV2n_sCn_JHf2-47">
          <mxGeometry relative="1" as="geometry">
            <Array as="points">
              <mxPoint x="570.77" y="728" />
            </Array>
          </mxGeometry>
        </mxCell>
        <mxCell id="7x98fHGfV2n_sCn_JHf2-41" value="Reaction" style="rounded=0;whiteSpace=wrap;html=1;" vertex="1" parent="1">
          <mxGeometry x="570.27" y="524" width="98" height="30" as="geometry" />
        </mxCell>
        <mxCell id="7x98fHGfV2n_sCn_JHf2-42" style="edgeStyle=orthogonalEdgeStyle;rounded=0;orthogonalLoop=1;jettySize=auto;html=1;endArrow=none;startFill=0;" edge="1" parent="1" source="7x98fHGfV2n_sCn_JHf2-43">
          <mxGeometry relative="1" as="geometry">
            <Array as="points">
              <mxPoint x="591.77" y="620" />
              <mxPoint x="591.77" y="554" />
            </Array>
            <mxPoint x="604.29" y="615.037275312821" as="sourcePoint" />
            <mxPoint x="604.29" y="554" as="targetPoint" />
          </mxGeometry>
        </mxCell>
        <mxCell id="7x98fHGfV2n_sCn_JHf2-43" value="PID" style="ellipse;whiteSpace=wrap;html=1;" vertex="1" parent="1">
          <mxGeometry x="605.27" y="605.97" width="63" height="28" as="geometry" />
        </mxCell>
        <mxCell id="7x98fHGfV2n_sCn_JHf2-44" value="POID" style="ellipse;whiteSpace=wrap;html=1;" vertex="1" parent="1">
          <mxGeometry x="605.27" y="642" width="63" height="28" as="geometry" />
        </mxCell>
        <mxCell id="7x98fHGfV2n_sCn_JHf2-45" value="reaction" style="ellipse;whiteSpace=wrap;html=1;" vertex="1" parent="1">
          <mxGeometry x="605.27" y="677" width="63" height="28" as="geometry" />
        </mxCell>
        <mxCell id="7x98fHGfV2n_sCn_JHf2-47" value="timestamp" style="ellipse;whiteSpace=wrap;html=1;" vertex="1" parent="1">
          <mxGeometry x="600.27" y="712.5" width="68" height="28" as="geometry" />
        </mxCell>
        <mxCell id="7x98fHGfV2n_sCn_JHf2-48" value="PID" style="ellipse;whiteSpace=wrap;html=1;" vertex="1" parent="1">
          <mxGeometry x="316" y="564.97" width="63" height="28" as="geometry" />
        </mxCell>
        <mxCell id="7x98fHGfV2n_sCn_JHf2-50" style="edgeStyle=orthogonalEdgeStyle;rounded=0;orthogonalLoop=1;jettySize=auto;html=1;exitX=0.25;exitY=1;exitDx=0;exitDy=0;endArrow=none;startFill=0;" edge="1" parent="1" source="7x98fHGfV2n_sCn_JHf2-54" target="7x98fHGfV2n_sCn_JHf2-57">
          <mxGeometry relative="1" as="geometry">
            <Array as="points">
              <mxPoint x="721.77" y="554" />
              <mxPoint x="721.77" y="644" />
            </Array>
          </mxGeometry>
        </mxCell>
        <mxCell id="7x98fHGfV2n_sCn_JHf2-51" style="edgeStyle=orthogonalEdgeStyle;rounded=0;orthogonalLoop=1;jettySize=auto;html=1;endArrow=none;startFill=0;" edge="1" parent="1" source="7x98fHGfV2n_sCn_JHf2-54" target="7x98fHGfV2n_sCn_JHf2-58">
          <mxGeometry relative="1" as="geometry">
            <Array as="points">
              <mxPoint x="712.77" y="678" />
            </Array>
          </mxGeometry>
        </mxCell>
        <mxCell id="7x98fHGfV2n_sCn_JHf2-53" style="edgeStyle=orthogonalEdgeStyle;rounded=0;orthogonalLoop=1;jettySize=auto;html=1;endArrow=none;startFill=0;" edge="1" parent="1" source="7x98fHGfV2n_sCn_JHf2-54" target="7x98fHGfV2n_sCn_JHf2-60">
          <mxGeometry relative="1" as="geometry">
            <Array as="points">
              <mxPoint x="703.77" y="712" />
            </Array>
          </mxGeometry>
        </mxCell>
        <mxCell id="7x98fHGfV2n_sCn_JHf2-66" style="edgeStyle=orthogonalEdgeStyle;rounded=0;orthogonalLoop=1;jettySize=auto;html=1;exitX=0.5;exitY=1;exitDx=0;exitDy=0;endArrow=none;startFill=0;" edge="1" parent="1" source="7x98fHGfV2n_sCn_JHf2-54" target="7x98fHGfV2n_sCn_JHf2-65">
          <mxGeometry relative="1" as="geometry">
            <Array as="points">
              <mxPoint x="734.77" y="554" />
              <mxPoint x="734.77" y="575" />
            </Array>
          </mxGeometry>
        </mxCell>
        <mxCell id="7x98fHGfV2n_sCn_JHf2-54" value="Comment" style="rounded=0;whiteSpace=wrap;html=1;" vertex="1" parent="1">
          <mxGeometry x="703.52" y="524" width="98" height="30" as="geometry" />
        </mxCell>
        <mxCell id="7x98fHGfV2n_sCn_JHf2-55" style="edgeStyle=orthogonalEdgeStyle;rounded=0;orthogonalLoop=1;jettySize=auto;html=1;endArrow=none;startFill=0;" edge="1" parent="1" source="7x98fHGfV2n_sCn_JHf2-56" target="7x98fHGfV2n_sCn_JHf2-54">
          <mxGeometry relative="1" as="geometry">
            <Array as="points">
              <mxPoint x="728.77" y="608" />
            </Array>
          </mxGeometry>
        </mxCell>
        <mxCell id="7x98fHGfV2n_sCn_JHf2-56" value="PID" style="ellipse;whiteSpace=wrap;html=1;" vertex="1" parent="1">
          <mxGeometry x="738.52" y="595.97" width="63" height="28" as="geometry" />
        </mxCell>
        <mxCell id="7x98fHGfV2n_sCn_JHf2-57" value="POID" style="ellipse;whiteSpace=wrap;html=1;" vertex="1" parent="1">
          <mxGeometry x="738.52" y="630" width="63" height="28" as="geometry" />
        </mxCell>
        <mxCell id="7x98fHGfV2n_sCn_JHf2-58" value="comment" style="ellipse;whiteSpace=wrap;html=1;" vertex="1" parent="1">
          <mxGeometry x="738.52" y="664" width="63" height="28" as="geometry" />
        </mxCell>
        <mxCell id="7x98fHGfV2n_sCn_JHf2-60" value="timestamp" style="ellipse;whiteSpace=wrap;html=1;" vertex="1" parent="1">
          <mxGeometry x="736.02" y="698" width="68" height="28" as="geometry" />
        </mxCell>
        <mxCell id="7x98fHGfV2n_sCn_JHf2-61" value="" style="endArrow=none;html=1;rounded=0;" edge="1" parent="1">
          <mxGeometry width="50" height="50" relative="1" as="geometry">
            <mxPoint x="478.27" y="622" as="sourcePoint" />
            <mxPoint x="507.27" y="622" as="targetPoint" />
          </mxGeometry>
        </mxCell>
        <mxCell id="7x98fHGfV2n_sCn_JHf2-63" style="edgeStyle=orthogonalEdgeStyle;rounded=0;orthogonalLoop=1;jettySize=auto;html=1;exitX=0;exitY=0;exitDx=0;exitDy=0;endArrow=none;startFill=0;" edge="1" parent="1" source="7x98fHGfV2n_sCn_JHf2-62" target="7x98fHGfV2n_sCn_JHf2-41">
          <mxGeometry relative="1" as="geometry">
            <Array as="points">
              <mxPoint x="616.77" y="588" />
              <mxPoint x="600.77" y="588" />
            </Array>
          </mxGeometry>
        </mxCell>
        <mxCell id="7x98fHGfV2n_sCn_JHf2-62" value="RID" style="ellipse;whiteSpace=wrap;html=1;" vertex="1" parent="1">
          <mxGeometry x="607.77" y="571" width="63" height="28" as="geometry" />
        </mxCell>
        <mxCell id="7x98fHGfV2n_sCn_JHf2-64" value="" style="endArrow=none;html=1;rounded=0;" edge="1" parent="1">
          <mxGeometry width="50" height="50" relative="1" as="geometry">
            <mxPoint x="624.77" y="591.76" as="sourcePoint" />
            <mxPoint x="653.77" y="591.76" as="targetPoint" />
          </mxGeometry>
        </mxCell>
        <mxCell id="7x98fHGfV2n_sCn_JHf2-65" value="CID" style="ellipse;whiteSpace=wrap;html=1;" vertex="1" parent="1">
          <mxGeometry x="738.52" y="561" width="63" height="28" as="geometry" />
        </mxCell>
        <mxCell id="7x98fHGfV2n_sCn_JHf2-67" value="" style="endArrow=none;html=1;rounded=0;" edge="1" parent="1">
          <mxGeometry width="50" height="50" relative="1" as="geometry">
            <mxPoint x="756.52" y="582" as="sourcePoint" />
            <mxPoint x="785.52" y="582" as="targetPoint" />
          </mxGeometry>
        </mxCell>
        <mxCell id="7x98fHGfV2n_sCn_JHf2-80" style="edgeStyle=orthogonalEdgeStyle;rounded=0;orthogonalLoop=1;jettySize=auto;html=1;endArrow=none;startFill=0;" edge="1" parent="1" source="7x98fHGfV2n_sCn_JHf2-84" target="7x98fHGfV2n_sCn_JHf2-87">
          <mxGeometry relative="1" as="geometry">
            <Array as="points">
              <mxPoint x="858.27" y="610" />
            </Array>
          </mxGeometry>
        </mxCell>
        <mxCell id="7x98fHGfV2n_sCn_JHf2-81" style="edgeStyle=orthogonalEdgeStyle;rounded=0;orthogonalLoop=1;jettySize=auto;html=1;endArrow=none;startFill=0;" edge="1" parent="1" source="7x98fHGfV2n_sCn_JHf2-84" target="7x98fHGfV2n_sCn_JHf2-88">
          <mxGeometry relative="1" as="geometry">
            <Array as="points">
              <mxPoint x="849.52" y="644" />
            </Array>
          </mxGeometry>
        </mxCell>
        <mxCell id="7x98fHGfV2n_sCn_JHf2-82" style="edgeStyle=orthogonalEdgeStyle;rounded=0;orthogonalLoop=1;jettySize=auto;html=1;endArrow=none;startFill=0;" edge="1" parent="1" source="7x98fHGfV2n_sCn_JHf2-84" target="7x98fHGfV2n_sCn_JHf2-89">
          <mxGeometry relative="1" as="geometry">
            <Array as="points">
              <mxPoint x="840.52" y="678" />
            </Array>
          </mxGeometry>
        </mxCell>
        <mxCell id="7x98fHGfV2n_sCn_JHf2-84" value="PostVisibility" style="rounded=0;whiteSpace=wrap;html=1;" vertex="1" parent="1">
          <mxGeometry x="840.27" y="524" width="98" height="30" as="geometry" />
        </mxCell>
        <mxCell id="7x98fHGfV2n_sCn_JHf2-85" style="edgeStyle=orthogonalEdgeStyle;rounded=0;orthogonalLoop=1;jettySize=auto;html=1;endArrow=none;startFill=0;" edge="1" parent="1" source="7x98fHGfV2n_sCn_JHf2-86" target="7x98fHGfV2n_sCn_JHf2-84">
          <mxGeometry relative="1" as="geometry">
            <Array as="points">
              <mxPoint x="865.52" y="574" />
            </Array>
          </mxGeometry>
        </mxCell>
        <mxCell id="7x98fHGfV2n_sCn_JHf2-86" value="PID" style="ellipse;whiteSpace=wrap;html=1;" vertex="1" parent="1">
          <mxGeometry x="875.27" y="561.97" width="63" height="28" as="geometry" />
        </mxCell>
        <mxCell id="7x98fHGfV2n_sCn_JHf2-87" value="POID" style="ellipse;whiteSpace=wrap;html=1;" vertex="1" parent="1">
          <mxGeometry x="875.27" y="596" width="63" height="28" as="geometry" />
        </mxCell>
        <mxCell id="7x98fHGfV2n_sCn_JHf2-88" value="level" style="ellipse;whiteSpace=wrap;html=1;" vertex="1" parent="1">
          <mxGeometry x="875.27" y="630" width="63" height="28" as="geometry" />
        </mxCell>
        <mxCell id="7x98fHGfV2n_sCn_JHf2-89" value="timestamp" style="ellipse;whiteSpace=wrap;html=1;" vertex="1" parent="1">
          <mxGeometry x="872.77" y="664" width="68" height="28" as="geometry" />
        </mxCell>
        <mxCell id="7x98fHGfV2n_sCn_JHf2-91" value="" style="endArrow=none;html=1;rounded=0;" edge="1" parent="1">
          <mxGeometry width="50" height="50" relative="1" as="geometry">
            <mxPoint x="892.27" y="618.83" as="sourcePoint" />
            <mxPoint x="921.27" y="618.83" as="targetPoint" />
          </mxGeometry>
        </mxCell>
        <mxCell id="7x98fHGfV2n_sCn_JHf2-92" value="dob" style="ellipse;whiteSpace=wrap;html=1;" vertex="1" parent="1">
          <mxGeometry x="417.27" y="174" width="68" height="30" as="geometry" />
        </mxCell>
        <mxCell id="7x98fHGfV2n_sCn_JHf2-106" style="edgeStyle=orthogonalEdgeStyle;rounded=0;orthogonalLoop=1;jettySize=auto;html=1;exitX=0.25;exitY=1;exitDx=0;exitDy=0;endArrow=none;startFill=0;" edge="1" parent="1" source="7x98fHGfV2n_sCn_JHf2-110" target="7x98fHGfV2n_sCn_JHf2-113">
          <mxGeometry relative="1" as="geometry">
            <Array as="points">
              <mxPoint x="995.29" y="616" />
            </Array>
          </mxGeometry>
        </mxCell>
        <mxCell id="7x98fHGfV2n_sCn_JHf2-107" style="edgeStyle=orthogonalEdgeStyle;rounded=0;orthogonalLoop=1;jettySize=auto;html=1;endArrow=none;startFill=0;" edge="1" parent="1" source="7x98fHGfV2n_sCn_JHf2-110" target="7x98fHGfV2n_sCn_JHf2-114">
          <mxGeometry relative="1" as="geometry">
            <Array as="points">
              <mxPoint x="988.29" y="650" />
            </Array>
          </mxGeometry>
        </mxCell>
        <mxCell id="7x98fHGfV2n_sCn_JHf2-108" style="edgeStyle=orthogonalEdgeStyle;rounded=0;orthogonalLoop=1;jettySize=auto;html=1;endArrow=none;startFill=0;" edge="1" parent="1" source="7x98fHGfV2n_sCn_JHf2-110" target="7x98fHGfV2n_sCn_JHf2-115">
          <mxGeometry relative="1" as="geometry">
            <Array as="points">
              <mxPoint x="980.29" y="686" />
            </Array>
          </mxGeometry>
        </mxCell>
        <mxCell id="7x98fHGfV2n_sCn_JHf2-109" style="edgeStyle=orthogonalEdgeStyle;rounded=0;orthogonalLoop=1;jettySize=auto;html=1;endArrow=none;startFill=0;" edge="1" parent="1" source="7x98fHGfV2n_sCn_JHf2-110" target="7x98fHGfV2n_sCn_JHf2-116">
          <mxGeometry relative="1" as="geometry">
            <Array as="points">
              <mxPoint x="970.29" y="724" />
            </Array>
          </mxGeometry>
        </mxCell>
        <mxCell id="7x98fHGfV2n_sCn_JHf2-110" value="Repost" style="rounded=0;whiteSpace=wrap;html=1;" vertex="1" parent="1">
          <mxGeometry x="970.29" y="524" width="98" height="30" as="geometry" />
        </mxCell>
        <mxCell id="7x98fHGfV2n_sCn_JHf2-111" style="edgeStyle=orthogonalEdgeStyle;rounded=0;orthogonalLoop=1;jettySize=auto;html=1;endArrow=none;startFill=0;" edge="1" parent="1" source="7x98fHGfV2n_sCn_JHf2-112" target="7x98fHGfV2n_sCn_JHf2-110">
          <mxGeometry relative="1" as="geometry">
            <Array as="points">
              <mxPoint x="1007.29" y="561" />
              <mxPoint x="1007.29" y="561" />
            </Array>
          </mxGeometry>
        </mxCell>
        <mxCell id="7x98fHGfV2n_sCn_JHf2-112" value="RPID" style="ellipse;whiteSpace=wrap;html=1;" vertex="1" parent="1">
          <mxGeometry x="1005.29" y="564.97" width="63" height="28" as="geometry" />
        </mxCell>
        <mxCell id="7x98fHGfV2n_sCn_JHf2-113" value="POID" style="ellipse;whiteSpace=wrap;html=1;" vertex="1" parent="1">
          <mxGeometry x="1005.29" y="601" width="63" height="28" as="geometry" />
        </mxCell>
        <mxCell id="7x98fHGfV2n_sCn_JHf2-114" value="PID" style="ellipse;whiteSpace=wrap;html=1;" vertex="1" parent="1">
          <mxGeometry x="1005.29" y="636" width="63" height="28" as="geometry" />
        </mxCell>
        <mxCell id="7x98fHGfV2n_sCn_JHf2-115" value="Comment" style="ellipse;whiteSpace=wrap;html=1;" vertex="1" parent="1">
          <mxGeometry x="1005.29" y="673" width="63" height="28" as="geometry" />
        </mxCell>
        <mxCell id="7x98fHGfV2n_sCn_JHf2-116" value="timestamp" style="ellipse;whiteSpace=wrap;html=1;" vertex="1" parent="1">
          <mxGeometry x="1002.79" y="707" width="68" height="28" as="geometry" />
        </mxCell>
        <mxCell id="7x98fHGfV2n_sCn_JHf2-117" value="" style="endArrow=none;html=1;rounded=0;" edge="1" parent="1">
          <mxGeometry width="50" height="50" relative="1" as="geometry">
            <mxPoint x="1022.29" y="584.71" as="sourcePoint" />
            <mxPoint x="1051.29" y="584.71" as="targetPoint" />
          </mxGeometry>
        </mxCell>
        <mxCell id="7x98fHGfV2n_sCn_JHf2-120" style="edgeStyle=orthogonalEdgeStyle;rounded=0;orthogonalLoop=1;jettySize=auto;html=1;endArrow=none;startFill=0;" edge="1" parent="1" source="7x98fHGfV2n_sCn_JHf2-119" target="7x98fHGfV2n_sCn_JHf2-28">
          <mxGeometry relative="1" as="geometry" />
        </mxCell>
        <mxCell id="7x98fHGfV2n_sCn_JHf2-119" value="create" style="rhombus;whiteSpace=wrap;html=1;" vertex="1" parent="1">
          <mxGeometry x="437.03" y="334" width="80" height="80" as="geometry" />
        </mxCell>
        <mxCell id="7x98fHGfV2n_sCn_JHf2-124" style="edgeStyle=orthogonalEdgeStyle;rounded=0;orthogonalLoop=1;jettySize=auto;html=1;" edge="1" parent="1" source="7x98fHGfV2n_sCn_JHf2-122" target="7x98fHGfV2n_sCn_JHf2-8">
          <mxGeometry relative="1" as="geometry" />
        </mxCell>
        <mxCell id="7x98fHGfV2n_sCn_JHf2-122" value="upload" style="rhombus;whiteSpace=wrap;html=1;" vertex="1" parent="1">
          <mxGeometry x="287" y="343" width="80" height="80" as="geometry" />
        </mxCell>
        <mxCell id="7x98fHGfV2n_sCn_JHf2-127" style="edgeStyle=orthogonalEdgeStyle;rounded=0;orthogonalLoop=1;jettySize=auto;html=1;" edge="1" parent="1" source="7x98fHGfV2n_sCn_JHf2-126" target="7x98fHGfV2n_sCn_JHf2-41">
          <mxGeometry relative="1" as="geometry" />
        </mxCell>
        <mxCell id="7x98fHGfV2n_sCn_JHf2-126" value="reaction" style="rhombus;whiteSpace=wrap;html=1;" vertex="1" parent="1">
          <mxGeometry x="579.27" y="334" width="80" height="80" as="geometry" />
        </mxCell>
        <mxCell id="7x98fHGfV2n_sCn_JHf2-129" style="edgeStyle=orthogonalEdgeStyle;rounded=0;orthogonalLoop=1;jettySize=auto;html=1;" edge="1" parent="1" source="7x98fHGfV2n_sCn_JHf2-128" target="7x98fHGfV2n_sCn_JHf2-54">
          <mxGeometry relative="1" as="geometry" />
        </mxCell>
        <mxCell id="7x98fHGfV2n_sCn_JHf2-128" value="comment" style="rhombus;whiteSpace=wrap;html=1;" vertex="1" parent="1">
          <mxGeometry x="712.52" y="334" width="80" height="80" as="geometry" />
        </mxCell>
        <mxCell id="7x98fHGfV2n_sCn_JHf2-133" style="edgeStyle=orthogonalEdgeStyle;rounded=0;orthogonalLoop=1;jettySize=auto;html=1;" edge="1" parent="1" source="7x98fHGfV2n_sCn_JHf2-132" target="7x98fHGfV2n_sCn_JHf2-84">
          <mxGeometry relative="1" as="geometry" />
        </mxCell>
        <mxCell id="7x98fHGfV2n_sCn_JHf2-132" value="view" style="rhombus;whiteSpace=wrap;html=1;" vertex="1" parent="1">
          <mxGeometry x="849.27" y="334" width="80" height="80" as="geometry" />
        </mxCell>
        <mxCell id="7x98fHGfV2n_sCn_JHf2-136" style="edgeStyle=orthogonalEdgeStyle;rounded=0;orthogonalLoop=1;jettySize=auto;html=1;" edge="1" parent="1" source="7x98fHGfV2n_sCn_JHf2-134" target="7x98fHGfV2n_sCn_JHf2-110">
          <mxGeometry relative="1" as="geometry" />
        </mxCell>
        <mxCell id="7x98fHGfV2n_sCn_JHf2-134" value="repost&lt;div&gt;(share)&lt;/div&gt;" style="rhombus;whiteSpace=wrap;html=1;" vertex="1" parent="1">
          <mxGeometry x="979.29" y="322.75" width="80" height="80" as="geometry" />
        </mxCell>
        <mxCell id="7x98fHGfV2n_sCn_JHf2-139" style="edgeStyle=orthogonalEdgeStyle;rounded=0;orthogonalLoop=1;jettySize=auto;html=1;exitX=0.5;exitY=1;exitDx=0;exitDy=0;" edge="1" parent="1" source="7x98fHGfV2n_sCn_JHf2-137" target="7x98fHGfV2n_sCn_JHf2-1">
          <mxGeometry relative="1" as="geometry" />
        </mxCell>
        <mxCell id="7x98fHGfV2n_sCn_JHf2-137" value="upload" style="rhombus;whiteSpace=wrap;html=1;" vertex="1" parent="1">
          <mxGeometry x="138.27000000000004" y="344" width="80" height="80" as="geometry" />
        </mxCell>
      </root>
    </mxGraphModel>
  </diagram>
</mxfile>
